<?xml version="1.0" standalone="no"?>
<!DOCTYPE svg PUBLIC "-//W3C//DTD SVG 20010904//EN"
 "http://www.w3.org/TR/2001/REC-SVG-20010904/DTD/svg10.dtd">
<svg version="1.0" xmlns="http://www.w3.org/2000/svg"
 width="500.000000pt" height="500.000000pt" viewBox="0 0 500.000000 500.000000"
 preserveAspectRatio="xMidYMid meet">
<metadata>
Created by potrace 1.14, written by Peter Selinger 2001-2017
</metadata>
<g transform="translate(0.000000,500.000000) scale(0.100000,-0.100000)"
fill="#000000" stroke="none">
<path d="M3057 4584 c-2 -2 -45 -10 -97 -19 -8 -1 -23 -5 -32 -9 -9 -4 -22 -9
-30 -10 -28 -6 -108 -43 -188 -87 -94 -52 -248 -169 -344 -262 -27 -26 -53
-47 -58 -47 -4 0 -8 -6 -8 -14 0 -28 -26 -22 -135 32 -60 30 -116 55 -122 55
-7 0 -13 5 -13 10 0 6 -3 8 -6 4 -4 -3 -19 0 -34 8 -15 8 -30 11 -34 8 -3 -4
-6 -1 -6 5 0 7 -10 12 -23 12 -13 0 -28 5 -35 12 -7 7 -12 9 -12 6 0 -4 -15
-2 -32 3 -18 5 -56 12 -85 15 -43 5 -53 3 -60 -13 -5 -10 -8 -24 -7 -30 1 -7
2 -17 3 -23 0 -5 10 -10 21 -10 11 0 20 -4 20 -10 0 -5 7 -7 14 -4 8 3 41 -2
73 -11 32 -9 65 -18 73 -20 32 -7 230 -93 240 -104 3 -3 19 -13 35 -21 17 -8
32 -15 34 -17 2 -1 -6 -13 -17 -27 -10 -14 -22 -22 -26 -19 -3 3 -6 2 -6 -4 0
-11 -33 -53 -78 -99 -13 -13 -19 -24 -15 -24 4 0 3 -4 -3 -8 -18 -12 -124
-150 -124 -161 0 -6 -4 -11 -10 -11 -5 0 -10 -4 -10 -10 0 -5 -8 -18 -17 -28
-10 -10 -33 -39 -50 -65 -18 -26 -36 -47 -40 -46 -5 1 -10 0 -13 -1 -3 -1 -13
-3 -23 -5 -10 -2 -26 -7 -35 -11 -9 -4 -25 -6 -34 -5 -10 1 -18 -3 -18 -9 0
-7 -6 -10 -12 -7 -7 2 -25 -2 -40 -10 -16 -7 -28 -11 -28 -9 0 3 -16 -2 -35
-10 -19 -8 -35 -11 -35 -7 0 4 -5 2 -12 -5 -7 -7 -20 -12 -30 -12 -10 0 -18
-5 -18 -10 0 -6 -3 -9 -7 -9 -17 3 -73 -14 -73 -22 0 -5 -3 -8 -7 -8 -5 1 -11
0 -15 -1 -5 -1 -11 -3 -15 -5 -53 -14 -62 -19 -56 -28 3 -6 1 -7 -5 -3 -6 4
-19 2 -29 -3 -27 -14 -157 -73 -163 -73 -3 -1 -21 -11 -40 -23 -48 -30 -76
-38 -78 -23 0 7 -3 23 -5 35 -10 42 -20 119 -21 163 -1 25 -5 50 -9 57 -4 6
-1 14 5 16 10 4 10 6 0 6 -9 1 -10 6 -3 20 6 10 7 21 4 25 -12 12 -12 36 0 36
8 0 8 3 2 8 -12 8 -13 27 -3 37 4 4 3 15 -2 25 -5 10 -7 20 -3 23 3 4 7 18 9
32 11 71 23 124 39 162 8 18 12 40 9 48 -9 23 -43 18 -53 -7 -19 -47 -24 -64
-26 -80 -2 -10 -3 -19 -5 -20 -5 -7 -12 -47 -13 -80 -1 -21 -5 -38 -9 -38 -10
0 -7 -304 3 -317 7 -7 6 -14 -1 -18 -6 -3 -7 -11 -3 -17 3 -7 8 -30 9 -52 2
-23 5 -59 9 -81 l5 -40 -87 -55 c-85 -53 -116 -76 -155 -112 -10 -10 -18 -15
-18 -12 0 4 -13 -6 -28 -22 -15 -16 -41 -40 -57 -54 -74 -64 -215 -238 -215
-266 0 -3 -8 -18 -18 -32 -18 -27 -51 -106 -57 -140 -2 -9 -4 -18 -5 -19 -2
-2 -4 -7 -5 -13 -1 -5 -3 -11 -4 -12 -12 -15 -16 -172 -7 -223 11 -62 29 -119
41 -127 5 -4 6 -8 2 -8 -5 0 0 -12 10 -27 10 -16 25 -41 33 -56 14 -28 153
-177 165 -177 6 0 23 -13 55 -42 10 -9 20 -14 23 -12 2 2 10 -2 17 -11 7 -8
19 -15 26 -15 8 0 14 -4 14 -10 0 -5 7 -10 15 -10 8 0 15 -4 15 -10 0 -5 3 -9
8 -8 4 1 39 -13 77 -31 119 -56 276 -113 317 -116 3 0 10 -3 14 -8 4 -4 20 -7
35 -7 35 0 37 -8 44 -140 3 -58 7 -116 10 -130 3 -14 8 -42 11 -63 7 -48 12
-72 14 -72 2 0 7 -23 11 -55 2 -14 7 -27 11 -30 4 -3 9 -18 12 -34 12 -65 56
-95 90 -61 11 12 12 22 4 48 -5 17 -11 39 -12 47 -1 9 -6 22 -11 29 -4 8 -12
33 -17 55 -4 23 -11 52 -13 66 -3 14 -7 52 -9 86 -2 34 -5 65 -8 70 -2 5 -5
41 -7 81 -3 71 -2 72 21 67 70 -15 136 -27 158 -29 14 -2 25 -4 25 -5 0 -4 42
-9 87 -12 27 -2 48 -5 48 -8 0 -3 19 -7 43 -8 101 -6 124 -9 136 -17 10 -6 12
-4 6 5 -6 10 -4 11 6 4 8 -5 31 -10 52 -11 31 -2 48 -13 96 -60 85 -85 191
-181 191 -174 0 3 4 1 8 -5 4 -6 48 -43 97 -82 103 -83 98 -79 147 -112 21
-14 38 -29 38 -33 0 -5 5 -5 10 -2 6 3 10 2 10 -3 0 -5 8 -12 18 -16 9 -3 31
-16 48 -28 18 -13 39 -28 49 -33 15 -9 15 -13 -9 -38 -14 -15 -28 -27 -31 -27
-3 0 -15 -9 -27 -19 -69 -65 -256 -176 -358 -213 -30 -11 -62 -22 -70 -25 -8
-3 -31 -8 -50 -10 -19 -2 -43 -11 -52 -20 -17 -15 -17 -17 -1 -35 9 -10 19
-15 22 -11 3 5 15 9 26 10 34 2 59 8 73 16 6 5 12 5 12 1 0 -3 7 -1 15 6 8 7
15 9 15 5 0 -4 7 -2 15 5 8 7 15 10 15 6 0 -3 17 4 37 15 20 12 46 23 56 25
11 2 31 11 46 21 37 25 71 43 71 37 0 -3 7 1 15 8 32 29 45 39 45 33 0 -3 6
-1 13 5 6 6 41 32 77 57 78 56 87 63 108 85 15 16 21 14 101 -26 118 -60 277
-126 323 -135 10 -2 23 -6 75 -21 23 -7 48 -10 56 -7 8 3 19 1 25 -5 6 -6 48
-12 94 -15 46 -2 89 -6 96 -8 6 -2 12 -1 12 4 0 4 16 7 35 6 44 -3 121 12 180
35 17 6 30 11 30 10 0 -2 17 5 37 13 47 20 125 73 158 108 43 45 70 79 70 88
0 5 7 14 15 21 17 14 73 157 79 202 3 18 6 33 7 33 3 0 7 35 12 96 2 31 7 62
11 68 4 6 4 11 -1 11 -4 0 -8 16 -8 35 0 19 5 35 10 35 7 0 7 3 0 8 -5 4 -10
25 -11 47 -1 48 -11 140 -19 175 -3 14 -7 39 -10 55 -2 17 -13 66 -24 110 -11
44 -17 83 -15 86 2 4 -1 9 -8 11 -7 3 7 18 32 34 25 16 48 33 52 39 4 5 8 7 8
3 0 -5 20 7 44 25 23 17 53 39 66 47 67 44 213 188 236 232 13 25 12 30 -6 48
-11 11 -25 20 -30 20 -13 0 -100 -88 -100 -101 0 -5 -3 -9 -8 -9 -4 0 -30 -22
-59 -49 -28 -27 -54 -46 -57 -44 -3 3 -8 -2 -12 -11 -3 -9 -10 -16 -15 -16 -6
0 -19 -9 -31 -20 -12 -11 -28 -20 -35 -20 -7 0 -13 -4 -13 -8 0 -9 -91 -62
-104 -62 -4 0 -4 4 -1 10 3 5 2 10 -3 10 -5 0 -13 15 -17 33 -12 50 -55 168
-65 177 -3 3 -7 14 -8 25 -2 11 -7 22 -10 25 -4 3 -9 14 -10 25 -2 11 -9 23
-15 27 -7 4 -8 8 -3 8 5 0 4 6 -2 13 -6 6 -10 14 -10 17 1 5 -39 96 -72 163
-13 28 -16 46 -10 67 4 16 6 31 2 34 -3 3 1 6 8 6 7 0 11 3 7 6 -3 3 -1 18 4
32 5 14 12 37 14 51 2 14 7 44 11 66 3 22 9 45 13 50 4 6 7 25 6 43 0 17 2 32
5 32 4 0 7 6 7 13 0 26 14 120 18 127 6 10 18 138 19 202 1 27 3 48 6 48 3 0
5 24 5 53 -1 75 3 86 30 83 13 -1 31 -8 39 -16 9 -7 16 -9 16 -5 0 4 7 2 15
-5 8 -6 18 -9 24 -6 5 3 11 3 13 -1 1 -5 54 -33 115 -63 62 -30 113 -58 113
-62 0 -5 7 -8 15 -8 8 0 15 -4 15 -10 0 -5 6 -10 13 -10 16 -1 136 -106 179
-159 22 -26 30 -26 46 -1 11 18 5 27 -67 98 -91 89 -106 102 -121 102 -5 0
-10 3 -10 8 0 4 -16 16 -35 26 -19 11 -35 24 -35 29 0 6 -3 7 -7 4 -3 -4 -12
-2 -18 3 -24 20 -184 98 -189 92 -3 -3 -6 0 -6 7 0 7 -4 9 -10 6 -5 -3 -10 -1
-10 5 0 6 -4 9 -9 5 -5 -3 -12 -1 -16 5 -3 5 -15 10 -26 10 -13 0 -18 4 -13
12 4 7 3 8 -5 4 -6 -4 -22 -1 -34 7 -20 13 -22 23 -22 76 1 33 -1 61 -4 61 -3
0 -6 19 -5 43 0 23 -3 47 -8 54 -5 7 -5 14 2 18 6 3 7 12 3 18 -4 7 -9 26 -9
42 -1 17 -6 41 -11 55 -4 14 -8 34 -8 45 0 11 -3 22 -7 25 -4 3 -8 20 -10 38
-1 18 -7 32 -12 32 -5 0 -7 3 -3 6 7 8 -26 103 -59 166 -13 27 -24 55 -24 64
0 8 -4 12 -10 9 -5 -3 -10 -1 -10 5 0 22 -64 106 -130 170 -62 60 -186 137
-238 147 -9 2 -28 5 -42 8 -14 2 -25 4 -25 6 0 2 -156 5 -158 3z m58 -149 c17
0 33 5 37 10 5 6 8 5 8 -3 0 -7 4 -11 9 -8 4 3 31 0 60 -8 28 -7 51 -10 51 -7
0 3 5 -2 11 -12 6 -9 14 -15 18 -13 4 3 20 -6 36 -20 15 -13 31 -24 35 -24 14
0 104 -97 133 -142 45 -72 93 -173 102 -218 2 -8 9 -28 15 -45 13 -34 23 -79
24 -112 1 -13 4 -23 8 -23 4 0 6 -12 4 -27 -1 -16 1 -33 6 -39 4 -6 11 -49 14
-95 3 -45 8 -87 10 -91 6 -10 -50 -11 -60 -1 -3 4 -17 8 -29 10 -12 2 -29 6
-37 10 -18 7 -28 10 -58 11 -13 1 -21 6 -18 11 3 4 -6 6 -19 3 -14 -2 -33 -1
-42 3 -10 4 -29 9 -43 11 -14 2 -41 6 -60 9 -19 4 -44 7 -54 6 -11 0 -28 5
-39 10 -15 9 -18 8 -12 -2 6 -8 4 -10 -6 -3 -8 4 -30 9 -49 11 -19 1 -53 4
-75 6 -22 1 -45 6 -52 10 -6 4 -14 3 -18 -3 -4 -6 -11 -7 -17 -4 -6 4 -40 8
-75 9 -36 1 -68 6 -71 11 -4 6 -52 48 -107 94 -55 47 -101 88 -103 93 -2 4
-10 7 -17 7 -7 0 -15 3 -17 8 -1 4 -32 28 -68 54 -36 26 -70 51 -76 56 -5 5
-19 14 -30 20 -47 27 -47 28 -15 60 17 17 31 29 31 27 0 -2 15 11 33 28 45 42
75 67 117 97 19 13 37 27 40 30 13 14 70 50 80 50 5 0 10 5 10 11 0 5 5 7 10
4 6 -3 10 -2 10 3 0 9 70 47 83 44 4 -1 7 3 7 10 0 6 3 8 7 5 3 -4 16 0 29 8
12 8 33 16 46 19 12 2 35 9 51 15 15 6 27 7 27 4 0 -4 5 -2 11 4 6 6 17 9 24
7 7 -3 16 0 20 6 4 7 10 8 14 4 3 -5 20 -9 36 -9z m-600 -599 c22 -17 42 -34
43 -38 2 -5 8 -8 13 -8 5 0 33 -22 62 -50 28 -27 58 -50 65 -50 21 0 13 -17
-10 -22 -13 -2 -53 -3 -90 -3 -37 0 -65 -2 -62 -6 5 -9 -23 -5 -32 4 -4 3 -12
3 -18 0 -6 -4 -27 -8 -46 -10 -42 -3 -125 -12 -160 -17 -38 -5 -122 -17 -150
-22 -14 -2 -41 -7 -60 -10 -19 -3 -39 -8 -43 -11 -16 -10 11 32 44 67 18 19
31 35 28 35 -2 0 2 7 9 15 7 8 20 25 30 36 39 50 109 130 134 156 15 15 25 28
22 28 -4 0 4 8 17 19 23 18 23 18 93 -32 39 -28 89 -64 111 -81z m363 -325
c62 -64 143 -155 189 -211 15 -19 38 -46 50 -60 13 -14 23 -28 23 -32 0 -3 6
-13 13 -20 7 -7 28 -35 47 -63 19 -27 38 -52 41 -55 3 -3 14 -21 25 -40 10
-19 25 -41 31 -48 19 -20 93 -149 93 -161 0 -6 5 -11 10 -11 6 0 14 -10 19
-22 5 -13 25 -51 44 -85 20 -35 33 -63 29 -63 -4 0 -2 -4 4 -8 20 -12 73 -136
63 -147 -5 -5 -9 -19 -9 -32 0 -13 -4 -23 -8 -23 -4 0 -9 -8 -10 -17 -2 -21
-10 -57 -12 -60 -2 -2 -3 -6 -5 -10 -1 -5 -4 -15 -8 -23 -3 -8 -18 -49 -32
-90 -14 -41 -31 -81 -38 -89 -10 -12 -9 -13 3 -6 13 8 13 7 1 -8 -7 -9 -10
-17 -5 -17 5 0 3 -4 -5 -9 -8 -5 -16 -16 -17 -23 -4 -29 -113 -258 -136 -286
-11 -13 -11 -14 2 -7 8 5 4 -7 -10 -26 -14 -18 -31 -46 -37 -60 -6 -14 -17
-26 -25 -27 -7 0 -34 -7 -60 -15 -25 -9 -49 -13 -52 -10 -3 4 -6 1 -6 -6 0 -7
-4 -10 -8 -7 -4 3 -26 0 -48 -5 -62 -15 -97 -22 -126 -23 -16 0 -28 -4 -28 -8
0 -4 -7 -5 -15 -2 -9 4 -15 0 -15 -7 0 -11 -3 -11 -10 1 -5 8 -10 10 -10 4 0
-6 -12 -11 -27 -12 -31 -1 -98 -9 -98 -12 0 -1 -27 -3 -60 -5 -33 -1 -60 -4
-60 -5 0 -7 -273 -11 -562 -8 -18 0 -33 5 -33 12 0 7 -3 7 -8 1 -9 -13 -42
-16 -42 -3 0 5 -4 7 -9 4 -7 -5 -81 58 -81 69 0 3 -17 22 -37 43 -41 42 -93
103 -161 187 -29 37 -122 165 -138 190 -10 17 -21 32 -24 35 -14 12 -105 164
-102 172 1 4 -3 8 -9 8 -6 0 -7 5 -2 13 4 6 8 17 8 22 5 42 19 95 27 95 5 0 7
4 4 9 -3 4 3 32 14 62 11 29 20 62 20 71 0 10 5 18 11 18 5 0 8 4 5 8 -3 5 1
20 9 35 8 15 12 27 9 27 -3 0 1 10 8 23 7 12 13 24 14 27 1 7 14 38 36 90 10
25 18 45 17 45 -1 0 7 18 18 40 12 22 22 45 24 50 1 6 15 32 31 58 15 26 28
54 28 62 0 8 4 15 8 15 4 0 13 12 19 28 7 15 22 43 33 62 40 67 44 75 42 83
-1 4 3 7 8 7 6 0 10 7 10 15 0 8 4 15 8 15 4 0 21 25 37 55 15 30 33 55 38 55
6 0 8 3 5 6 -4 3 0 13 8 22 8 9 25 30 37 45 12 15 31 30 42 32 11 2 21 4 23 5
1 2 11 4 22 5 11 1 22 4 25 5 6 3 8 3 50 13 38 8 94 19 120 22 11 1 27 5 35 8
8 3 22 5 30 5 8 0 25 3 37 6 21 4 136 18 178 20 11 0 23 6 27 11 5 6 8 5 8 -3
0 -7 5 -10 11 -6 7 4 62 9 123 11 61 3 112 6 114 7 1 2 16 2 33 0 21 -3 47
-21 87 -63z m280 46 c7 -5 12 -3 12 3 0 6 5 8 13 3 13 -8 18 -9 109 -14 32 -2
58 -7 58 -10 0 -3 12 -6 28 -6 29 -2 87 -10 87 -14 0 -1 11 -3 25 -4 14 -1 32
-5 40 -8 8 -3 31 -9 50 -12 29 -5 54 -10 68 -14 1 -1 3 0 5 1 1 1 12 -4 24
-10 21 -12 22 -16 17 -135 -6 -141 -11 -231 -14 -234 -2 -2 -4 -16 -5 -33 -1
-16 -3 -31 -5 -32 -1 -2 -3 -16 -5 -33 -3 -39 -16 -125 -22 -150 -2 -11 -7
-36 -10 -55 -3 -19 -10 -41 -17 -49 -8 -12 -8 -13 2 -7 10 6 10 2 0 -19 l-11
-25 -29 51 c-15 29 -28 53 -28 55 0 2 -27 46 -60 99 -33 53 -60 100 -60 105 0
4 -3 10 -7 12 -11 4 -73 97 -73 107 0 5 -7 11 -15 15 -8 3 -15 12 -15 20 0 8
-6 19 -13 23 -6 4 -28 30 -47 56 -19 26 -46 61 -60 76 -14 16 -44 52 -68 80
-24 28 -66 74 -93 102 -27 28 -49 55 -49 60 0 10 150 7 168 -4z m-1424 -165
c-5 -4 -32 -45 -59 -92 -26 -47 -52 -88 -57 -91 -6 -3 -9 -9 -9 -13 1 -12 -33
-76 -41 -76 -4 0 -5 -6 -2 -14 3 -7 -1 -20 -9 -27 -8 -8 -33 -57 -57 -109 -58
-130 -64 -144 -64 -155 -1 -5 -7 -16 -14 -23 -7 -8 -10 -18 -7 -23 4 -5 1 -9
-6 -9 -7 0 -10 -3 -6 -6 3 -3 -5 -34 -19 -69 -26 -70 -54 -157 -73 -223 -13
-48 -19 -48 -42 0 -9 18 -30 61 -48 96 -17 34 -31 69 -31 77 0 8 -4 15 -10 15
-5 0 -10 7 -10 16 0 9 -11 38 -25 65 -13 27 -22 49 -18 49 3 0 0 7 -7 15 -7 8
-9 15 -6 15 4 0 0 10 -8 21 -8 12 -12 28 -9 35 3 8 1 14 -4 14 -5 0 -9 10 -10
22 -1 11 -6 24 -10 27 -4 3 -8 11 -9 16 0 12 -14 65 -21 85 -15 37 -13 63 4
75 10 7 21 11 25 9 5 -3 8 0 8 5 0 6 6 11 14 11 8 0 16 5 18 11 2 5 10 11 18
12 8 2 20 5 25 9 15 9 145 77 148 77 5 -1 57 21 101 42 27 12 55 22 62 22 8 0
14 4 14 9 0 4 7 8 15 8 8 0 29 6 47 14 50 22 72 29 88 30 8 0 18 4 21 8 3 5
16 10 29 13 12 2 25 7 28 10 3 3 12 5 21 5 10 0 12 -3 5 -8z m-766 -383 c-9
-6 -8 -10 5 -15 9 -3 15 -10 12 -14 -3 -5 7 -46 21 -92 15 -46 27 -89 27 -95
0 -7 5 -13 10 -13 6 0 8 -3 5 -6 -10 -9 80 -227 160 -387 55 -112 55 -112 36
-197 -3 -14 -7 -38 -9 -55 -3 -16 -7 -41 -10 -55 -4 -14 -8 -43 -11 -65 -2
-21 -7 -51 -10 -65 -5 -25 -13 -115 -19 -200 -1 -25 -3 -50 -4 -55 0 -6 -10
-11 -20 -11 -11 0 -17 4 -15 8 3 4 -4 9 -15 9 -21 2 -37 5 -46 9 -3 1 -8 3
-12 4 -5 1 -12 4 -18 7 -5 3 -31 12 -57 20 -27 7 -48 16 -48 20 0 3 -6 6 -13
6 -21 0 -227 104 -227 114 0 6 -4 7 -10 4 -5 -3 -10 -1 -10 4 0 6 -5 11 -11
11 -6 0 -17 6 -24 13 -8 6 -30 26 -51 42 -20 17 -48 43 -63 59 -14 16 -34 38
-44 48 -9 10 -14 18 -11 18 3 0 -4 13 -15 29 -12 16 -21 31 -21 34 0 2 -7 22
-17 43 -19 45 -24 160 -10 219 5 22 10 47 11 56 3 22 82 181 103 206 10 12 28
35 40 50 50 65 168 178 248 238 22 16 46 35 52 41 7 7 26 18 43 26 16 7 30 17
30 23 0 5 7 1 15 -9 12 -15 12 -22 3 -27z m2698 -726 c14 -32 27 -62 29 -68 2
-10 7 -25 28 -80 7 -16 11 -33 9 -37 -1 -5 3 -8 8 -8 6 0 10 -13 10 -30 0 -16
5 -30 11 -30 5 0 8 -4 4 -9 -3 -5 -1 -12 5 -16 5 -3 10 -16 10 -29 0 -12 3
-26 7 -30 4 -4 8 -17 10 -29 2 -18 -7 -26 -45 -43 -26 -12 -65 -30 -87 -40
-22 -10 -43 -17 -47 -16 -5 1 -8 -2 -8 -8 0 -5 -5 -10 -11 -10 -6 0 -55 -16
-108 -36 -53 -20 -107 -38 -119 -40 l-24 -5 21 29 c11 16 18 32 14 36 -3 3 -2
6 3 6 6 0 16 16 24 35 8 19 17 35 22 35 4 0 7 3 6 8 -1 4 9 30 22 57 13 28 23
53 22 58 -1 4 2 7 6 7 4 0 16 25 27 55 10 30 22 55 27 55 4 0 8 8 8 18 0 10 5
23 12 30 7 7 9 12 5 12 -4 0 -1 13 7 29 9 16 12 31 9 35 -4 3 -1 6 6 6 7 0 11
6 8 14 -3 7 0 19 6 25 6 6 7 11 2 11 -6 0 -4 4 3 9 7 4 14 18 15 29 2 36 15
25 43 -35z m-2285 -204 c7 -13 13 -27 14 -30 0 -3 8 -13 18 -23 9 -10 17 -21
17 -25 0 -4 9 -17 20 -29 12 -12 18 -22 14 -22 -3 0 9 -19 28 -42 18 -24 45
-60 58 -80 14 -21 28 -38 33 -38 4 0 7 -6 7 -12 0 -7 10 -23 23 -34 12 -12 40
-46 62 -77 22 -30 51 -62 65 -72 14 -9 18 -14 9 -12 -9 3 -22 1 -29 -3 -8 -5
-19 -6 -25 -2 -11 7 -16 8 -85 17 -52 7 -93 13 -135 21 -16 3 -41 7 -55 9 -14
2 -25 4 -25 5 0 2 -9 4 -75 16 -38 7 -56 24 -37 36 9 6 9 8 -1 8 -7 0 -10 5
-6 11 3 6 8 36 10 67 3 61 10 125 20 182 3 19 8 49 11 65 2 17 8 44 12 60 4
17 7 38 5 49 -2 17 -2 17 15 -1 10 -11 24 -30 32 -44z m2450 -291 c1 -7 1 -16
0 -20 0 -5 3 -8 7 -8 5 0 9 -6 9 -12 3 -45 8 -78 13 -78 3 0 7 -10 8 -22 4
-64 8 -94 13 -103 2 -6 4 -23 4 -40 0 -16 5 -33 10 -37 6 -5 5 -8 -3 -8 -9 0
-10 -5 -4 -17 5 -10 8 -61 6 -113 -4 -172 -26 -263 -93 -377 -25 -44 -128
-138 -154 -142 -4 0 -24 -8 -45 -17 -37 -16 -52 -20 -107 -30 -45 -9 -218 -12
-230 -4 -5 3 -19 6 -30 6 -11 -1 -42 4 -69 11 -27 7 -53 10 -57 7 -4 -2 -11 1
-16 8 -4 7 -17 14 -28 16 -11 1 -28 3 -37 4 -10 1 -18 6 -18 10 0 4 -3 7 -7 6
-8 -3 -50 12 -108 37 -17 8 -51 23 -76 33 -26 11 -49 24 -52 29 -3 4 29 45 71
89 95 100 138 148 177 198 17 21 35 44 41 50 5 6 37 49 69 96 33 47 63 87 67
88 5 2 8 8 8 14 0 5 11 24 25 42 14 18 25 37 25 43 0 5 9 18 20 28 11 10 20
15 20 12 0 -4 23 2 51 13 28 11 55 18 60 15 5 -4 9 -2 9 3 0 12 86 43 94 34 3
-3 6 0 6 6 0 7 8 12 18 12 10 0 22 3 26 8 4 4 11 8 14 8 28 6 52 18 52 26 0 5
4 6 10 3 5 -3 21 2 35 11 14 9 25 13 25 9 0 -3 12 3 26 14 15 11 30 19 34 16
4 -3 13 2 20 10 7 8 16 13 20 10 5 -3 11 -1 15 5 9 14 25 13 26 -2z m-725
-301 c-14 -19 -26 -37 -26 -40 0 -4 -6 -15 -14 -24 -39 -48 -85 -113 -80 -113
3 0 -1 -6 -8 -14 -29 -30 -68 -76 -68 -81 0 -3 -11 -18 -24 -33 -55 -61 -66
-75 -66 -84 0 -5 -4 -6 -10 -3 -5 3 -10 2 -10 -2 0 -12 -105 -123 -115 -123
-9 0 -146 80 -155 90 -3 3 -22 16 -43 29 -21 13 -44 30 -52 38 -8 8 -15 12
-15 8 0 -4 -6 0 -14 7 -22 21 -50 43 -61 48 -9 4 -19 11 -65 50 -9 8 -32 26
-50 40 -19 14 -52 41 -74 61 -23 20 -54 47 -69 60 l-28 24 68 -1 c38 0 75 -4
83 -9 7 -5 11 -4 8 1 -4 5 48 10 120 12 212 4 252 6 252 12 0 3 10 6 23 7 80
3 117 7 117 12 0 3 17 6 38 7 20 1 51 4 67 8 17 4 46 9 65 12 19 2 43 7 52 10
19 6 52 13 88 19 14 2 39 8 55 13 39 12 42 0 11 -41z"/>
<path d="M2390 2930 c-72 -16 -83 -20 -106 -35 -13 -8 -24 -13 -24 -10 0 7
-18 -7 -86 -69 -30 -27 -54 -55 -54 -63 0 -8 -4 -12 -8 -9 -9 5 -49 -83 -44
-96 1 -5 -2 -8 -6 -8 -4 0 -9 -8 -10 -17 -3 -32 -7 -48 -15 -60 -5 -7 -4 -13
2 -13 6 0 6 -11 1 -29 -5 -19 -4 -33 3 -41 9 -10 9 -11 -1 -5 -11 6 -12 3 -3
-12 5 -11 12 -35 14 -54 2 -19 10 -47 17 -64 7 -16 12 -34 12 -38 -1 -4 5 -10
13 -13 8 -4 15 -11 15 -18 0 -6 11 -23 24 -38 14 -14 22 -29 19 -32 -4 -3 1
-6 10 -6 9 0 20 -6 24 -13 12 -20 69 -57 77 -50 3 3 6 2 6 -4 0 -12 75 -43
117 -47 15 -2 30 -5 33 -6 13 -6 47 -4 63 3 10 4 17 4 17 -2 0 -7 9 -7 25 -1
14 5 25 8 25 5 0 -9 110 35 151 61 53 33 122 105 143 148 45 95 51 120 50 216
0 80 -4 107 -25 155 -7 17 -13 32 -14 35 -5 17 -41 70 -48 70 -5 0 -5 5 -2 10
3 6 -1 10 -9 10 -9 0 -16 6 -16 13 0 6 -24 28 -53 47 -28 19 -53 38 -55 43 -2
4 -11 7 -21 7 -9 0 -22 5 -29 12 -7 7 -12 9 -12 5 0 -4 -9 -3 -20 3 -26 14
-153 20 -200 10z"/>
<path d="M1210 4390 c-46 -18 -130 -87 -130 -107 0 -7 -4 -13 -10 -13 -21 0
-47 -160 -29 -185 3 -5 10 -24 13 -42 11 -49 118 -154 149 -145 4 1 7 -2 7 -7
0 -5 11 -8 25 -6 14 1 25 -2 25 -7 0 -5 23 -6 53 -3 28 4 60 7 70 8 9 1 17 5
17 9 0 4 5 8 11 8 6 0 28 12 49 28 66 47 112 147 106 232 -4 47 -29 113 -52
137 -7 7 -14 16 -16 21 -5 13 -90 68 -118 77 -44 14 -129 11 -170 -5z"/>
<path d="M4405 2962 c-3 -3 -15 -7 -26 -9 -37 -6 -129 -77 -129 -100 0 -7 -5
-13 -11 -13 -5 0 -7 -4 -4 -10 3 -5 2 -10 -3 -10 -5 0 -14 -17 -20 -37 -12
-43 -12 -153 0 -153 4 0 7 -3 6 -7 -3 -16 22 -62 53 -97 41 -48 85 -72 142
-78 9 -1 17 -5 17 -8 0 -8 80 -4 105 5 76 27 147 83 161 127 3 10 10 18 16 18
5 0 8 7 5 15 -4 8 -2 17 4 20 5 4 7 11 4 16 -4 5 -2 9 2 9 10 0 7 82 -3 120
-4 14 -8 27 -9 30 -7 30 -70 112 -79 103 -3 -4 -6 -1 -6 6 0 22 -101 59 -162
59 -31 0 -60 -3 -63 -6z"/>
<path d="M1580 940 c-95 -26 -179 -108 -196 -192 -9 -41 -9 -104 0 -141 10
-44 74 -137 95 -137 6 0 11 -3 11 -8 0 -4 12 -12 28 -19 116 -49 224 -33 304
48 20 20 40 34 44 30 4 -3 4 -1 0 6 -3 6 -2 14 4 18 5 3 10 15 10 25 0 10 5
20 11 22 7 2 11 32 11 73 0 73 -2 92 -15 113 -5 6 -5 12 -2 12 14 0 -80 104
-107 118 -68 35 -144 47 -198 32z"/>
</g>
</svg>
