<svg width="500" height="500" viewBox="0 0 500 500" fill="none" xmlns="http://www.w3.org/2000/svg">
<path d="M222.04 146.432C222.04 142.016 225.688 137.888 232.984 134.048C240.28 130.016 249.88 128 261.784 128C271 128 276.952 129.92 279.64 133.76C281.56 136.448 282.52 138.944 282.52 141.248V149.888C304.216 152.192 319.288 156.224 327.736 161.984C331.192 164.288 332.92 166.496 332.92 168.608C332.92 178.592 330.52 189.344 325.72 200.864C321.112 212.384 316.6 218.144 312.184 218.144C311.416 218.144 308.92 217.28 304.696 215.552C292.024 209.984 281.464 207.2 273.016 207.2C264.76 207.2 259.096 207.968 256.024 209.504C253.144 211.04 251.704 213.44 251.704 216.704C251.704 219.776 253.816 222.176 258.04 223.904C262.264 225.632 267.448 227.168 273.592 228.512C279.928 229.664 286.744 231.68 294.04 234.56C301.528 237.44 308.44 240.896 314.776 244.928C321.112 248.96 326.392 255.008 330.616 263.072C334.84 270.944 336.952 279.008 336.952 287.264C336.952 295.52 336.184 302.336 334.648 307.712C333.112 313.088 330.424 318.656 326.584 324.416C322.936 330.176 317.272 335.36 309.592 339.968C302.104 344.384 293.08 347.648 282.52 349.76V354.368C282.52 358.784 278.872 362.912 271.576 366.752C264.28 370.784 254.68 372.8 242.776 372.8C233.56 372.8 227.608 370.88 224.92 367.04C223 364.352 222.04 361.856 222.04 359.552V350.912C209.56 349.76 198.712 347.936 189.496 345.44C171.832 340.64 163 335.456 163 329.888C163 319.136 164.536 308 167.608 296.48C170.68 284.768 174.328 278.912 178.552 278.912C179.32 278.912 187.288 281.504 202.456 286.688C217.624 291.872 229.048 294.464 236.728 294.464C244.408 294.464 249.4 293.696 251.704 292.16C254.008 290.432 255.16 288.032 255.16 284.96C255.16 281.888 253.048 279.296 248.824 277.184C244.6 274.88 239.32 273.056 232.984 271.712C226.648 270.368 219.736 268.256 212.248 265.376C204.952 262.496 198.136 259.136 191.8 255.296C185.464 251.456 180.184 245.792 175.96 238.304C171.736 230.816 169.624 222.08 169.624 212.096C169.624 176.768 187.096 156.128 222.04 150.176V146.432Z" fill="#0CD15B"/>
</svg>
