<svg width="1550" height="500" viewBox="0 0 1550 500" fill="none" xmlns="http://www.w3.org/2000/svg">
<path d="M240.04 146.432C240.04 142.016 243.688 137.888 250.984 134.048C258.28 130.016 267.88 128 279.784 128C289 128 294.952 129.92 297.64 133.76C299.56 136.448 300.52 138.944 300.52 141.248V149.888C322.216 152.192 337.288 156.224 345.736 161.984C349.192 164.288 350.92 166.496 350.92 168.608C350.92 178.592 348.52 189.344 343.72 200.864C339.112 212.384 334.6 218.144 330.184 218.144C329.416 218.144 326.92 217.28 322.696 215.552C310.024 209.984 299.464 207.2 291.016 207.2C282.76 207.2 277.096 207.968 274.024 209.504C271.144 211.04 269.704 213.44 269.704 216.704C269.704 219.776 271.816 222.176 276.04 223.904C280.264 225.632 285.448 227.168 291.592 228.512C297.928 229.664 304.744 231.68 312.04 234.56C319.528 237.44 326.44 240.896 332.776 244.928C339.112 248.96 344.392 255.008 348.616 263.072C352.84 270.944 354.952 279.008 354.952 287.264C354.952 295.52 354.184 302.336 352.648 307.712C351.112 313.088 348.424 318.656 344.584 324.416C340.936 330.176 335.272 335.36 327.592 339.968C320.104 344.384 311.08 347.648 300.52 349.76V354.368C300.52 358.784 296.872 362.912 289.576 366.752C282.28 370.784 272.68 372.8 260.776 372.8C251.56 372.8 245.608 370.88 242.92 367.04C241 364.352 240.04 361.856 240.04 359.552V350.912C227.56 349.76 216.712 347.936 207.496 345.44C189.832 340.64 181 335.456 181 329.888C181 319.136 182.536 308 185.608 296.48C188.68 284.768 192.328 278.912 196.552 278.912C197.32 278.912 205.288 281.504 220.456 286.688C235.624 291.872 247.048 294.464 254.728 294.464C262.408 294.464 267.4 293.696 269.704 292.16C272.008 290.432 273.16 288.032 273.16 284.96C273.16 281.888 271.048 279.296 266.824 277.184C262.6 274.88 257.32 273.056 250.984 271.712C244.648 270.368 237.736 268.256 230.248 265.376C222.952 262.496 216.136 259.136 209.8 255.296C203.464 251.456 198.184 245.792 193.96 238.304C189.736 230.816 187.624 222.08 187.624 212.096C187.624 176.768 205.096 156.128 240.04 150.176V146.432Z" fill="#0CD15B"/>
<path d="M454.912 183.64C454.912 191.32 454.624 198.712 454.048 205.816C453.664 212.92 453.28 217.912 452.896 220.792H455.2C460.192 212.728 466.624 206.872 474.496 203.224C482.368 199.576 491.104 197.752 500.704 197.752C517.792 197.752 531.424 202.36 541.6 211.576C551.968 220.6 557.152 235.192 557.152 255.352V357.88H514.24V266.008C514.24 243.352 505.792 232.024 488.896 232.024C476.032 232.024 467.104 236.536 462.112 245.56C457.312 254.392 454.912 267.16 454.912 283.864V357.88H412V139H454.912V183.64Z" fill="white"/>
<path d="M665.793 197.464C686.913 197.464 703.041 202.072 714.177 211.288C725.505 220.312 731.169 234.232 731.169 253.048V357.88H701.217L692.865 336.568H691.713C684.993 345.016 677.889 351.16 670.401 355C662.913 358.84 652.641 360.76 639.585 360.76C625.569 360.76 613.953 356.728 604.737 348.664C595.521 340.408 590.913 327.832 590.913 310.936C590.913 294.232 596.769 281.944 608.481 274.072C620.193 266.008 637.761 261.592 661.185 260.824L688.545 259.96V253.048C688.545 244.792 686.337 238.744 681.921 234.904C677.697 231.064 671.745 229.144 664.065 229.144C656.385 229.144 648.897 230.296 641.601 232.6C634.305 234.712 627.009 237.4 619.713 240.664L605.601 211.576C614.049 207.16 623.361 203.704 633.537 201.208C643.905 198.712 654.657 197.464 665.793 197.464ZM671.841 285.592C658.017 285.976 648.417 288.472 643.041 293.08C637.665 297.688 634.977 303.736 634.977 311.224C634.977 317.752 636.897 322.456 640.737 325.336C644.577 328.024 649.569 329.368 655.713 329.368C664.929 329.368 672.705 326.68 679.041 321.304C685.377 315.736 688.545 307.96 688.545 297.976V285.016L671.841 285.592Z" fill="white"/>
<path d="M864.374 197.752C881.27 197.752 894.806 202.36 904.982 211.576C915.158 220.6 920.246 235.192 920.246 255.352V357.88H877.334V266.008C877.334 254.68 875.318 246.232 871.286 240.664C867.254 234.904 860.822 232.024 851.99 232.024C838.934 232.024 830.006 236.536 825.206 245.56C820.406 254.392 818.006 267.16 818.006 283.864V357.88H775.094V200.632H807.926L813.686 220.792H815.99C820.982 212.728 827.798 206.872 836.438 203.224C845.27 199.576 854.582 197.752 864.374 197.752Z" fill="white"/>
<path d="M1014.2 360.76C996.727 360.76 982.423 353.944 971.287 340.312C960.343 326.488 954.871 306.232 954.871 279.544C954.871 252.664 960.439 232.312 971.575 218.488C982.711 204.664 997.303 197.752 1015.35 197.752C1026.68 197.752 1035.99 199.96 1043.29 204.376C1050.58 208.792 1056.34 214.264 1060.57 220.792H1062.01C1061.43 217.72 1060.76 213.304 1059.99 207.544C1059.22 201.592 1058.84 195.544 1058.84 189.4V139H1101.75V357.88H1068.92L1060.57 337.432H1058.84C1054.61 343.96 1048.95 349.528 1041.85 354.136C1034.74 358.552 1025.53 360.76 1014.2 360.76ZM1029.17 326.488C1041.08 326.488 1049.43 323.032 1054.23 316.12C1059.03 309.016 1061.53 298.456 1061.72 284.44V279.832C1061.72 264.472 1059.32 252.76 1054.52 244.696C1049.91 236.632 1041.27 232.6 1028.6 232.6C1019.19 232.6 1011.8 236.728 1006.42 244.984C1001.05 253.048 998.359 264.76 998.359 280.12C998.359 295.48 1001.05 307.096 1006.42 314.968C1011.8 322.648 1019.38 326.488 1029.17 326.488Z" fill="white"/>
<path d="M1189.54 357.88H1146.62V139H1189.54V357.88Z" fill="white"/>
<path d="M1299.17 197.752C1320.87 197.752 1338.05 203.992 1350.73 216.472C1363.4 228.76 1369.74 246.328 1369.74 269.176V289.912H1268.36C1268.74 302.008 1272.3 311.512 1279.02 318.424C1285.93 325.336 1295.43 328.792 1307.53 328.792C1317.7 328.792 1326.92 327.832 1335.18 325.912C1343.43 323.8 1351.98 320.632 1360.81 316.408V349.528C1353.13 353.368 1344.97 356.152 1336.33 357.88C1327.88 359.8 1317.61 360.76 1305.51 360.76C1289.77 360.76 1275.85 357.88 1263.75 352.12C1251.66 346.168 1242.15 337.24 1235.24 325.336C1228.33 313.432 1224.87 298.456 1224.87 280.408C1224.87 261.976 1227.94 246.712 1234.09 234.616C1240.42 222.328 1249.16 213.112 1260.3 206.968C1271.43 200.824 1284.39 197.752 1299.17 197.752ZM1299.46 228.28C1291.21 228.28 1284.29 230.968 1278.73 236.344C1273.35 241.72 1270.18 250.072 1269.22 261.4H1329.42C1329.22 251.8 1326.73 243.928 1321.93 237.784C1317.13 231.448 1309.64 228.28 1299.46 228.28Z" fill="white"/>
</svg>
